# xmcd
#
# Track frame offsets: 
#        150
#        12123
#        37242
#        53727
#        63809
#        94919
#        111356
#        126079
#        140964
#        156492
#        184246
#
# Disc length: 2657 seconds
#
# Revision: 0
# Processed by: cddbd v1.5.1PL0 Copyright (c) Steve Scherf et al.
# Submitted via: ExactAudioCopy v0.95a5
#
DISCID=a10a5f0b
DTITLE=Various Artist - The Best of Cleveland Blues, Vol. I
DYEAR=1900
DGENRE=Blues
TTITLE0=Robert Jr. Lockwood - Can't Stand the Pain
TTITLE1=The Colin Dyssault Blues Project - Fire and Rain
TTITLE2=Jimmy lee and the Funk Pumpers - Pay Me in cash
TTITLE3=Travis Haddix - Catch You in the Truth
TTITLE4=Mr. Stress - Lovin Cup
TTITLE5=J. Blues - Black Cat
TTITLE6=Chad Ely - Long 3 days
TTITLE7=Mr. Downchild and the House Rocekers - Solid Gone
TTITLE8=The Elm St. Blues Band - I'd Rather be Blind
TTITLE9=Blue Taxi - Shadow of the Saigon Blues
TTITLE10=The Alan Greene Band - Big Hair Woman
EXTD=
EXTT0=
EXTT1=
EXTT2=
EXTT3=
EXTT4=
EXTT5=
EXTT6=
EXTT7=
EXTT8=
EXTT9=
EXTT10=
PLAYORDER=
